<?xml version="1.0" standalone="no"?><!DOCTYPE svg PUBLIC "-//W3C//DTD SVG 1.1//EN" "http://www.w3.org/Graphics/SVG/1.1/DTD/svg11.dtd"><svg t="1709797229304" class="icon" viewBox="0 0 1052 1024" version="1.1" xmlns="http://www.w3.org/2000/svg" p-id="8826" xmlns:xlink="http://www.w3.org/1999/xlink" width="205.46875" height="200"><path d="M1037.355379 962.901772l-72.981361-50.477022a171.201232 171.201232 0 0 0-51.055404-211.898332 185.608216 185.608216 0 0 0-258.379256 23.187882 178.457304 178.457304 0 0 0 22.71466 254.383158 192.864288 192.864288 0 0 0 121.618074 44.850937 169.413504 169.413504 0 0 0 126.560617-55.840205l73.612323 50.792503a33.335866 33.335866 0 0 0 18.981464 5.941566 33.441027 33.441027 0 0 0 19.086623-60.940487z m-230.038511-1.156766a117.937458 117.937458 0 0 1-12.356355 0.683543 117.832298 117.832298 0 0 1-12.356354-234.50783h3.259975c3.102234 0 6.204467-0.368062 9.25412-0.368062a120.934531 120.934531 0 0 1 120.934532 104.68724l0.315481 3.312555a120.51389 120.51389 0 0 1-109.103979 126.297715z" fill="#1F78FF" p-id="8827"></path><path d="M770.668447 469.436303h-168.677382l-21.400154-54.210218a42.064185 42.064185 0 0 0-39.645494-27.078819h-0.999024a42.642567 42.642567 0 0 0-39.172272 29.812991l-20.34855 64.831425L424.585366 284.984852a42.800308 42.800308 0 0 0-79.974532-6.204467L256.854429 469.436303H75.715533v85.179974h208.638357a42.747728 42.747728 0 0 0 38.69905-24.870449l50.792503-110.418485 63.096277 224.096945a42.852888 42.852888 0 0 0 40.434198 31.074916h0.630963a42.484827 42.484827 0 0 0 39.960975-29.918151l30.654275-97.115687a42.695148 42.695148 0 0 0 23.713684 7.203492h198.280051a42.589987 42.589987 0 1 0 0-85.179975z" fill="#2EF8FF" p-id="8828"></path><path d="M512.394352 0A512.552092 512.552092 0 0 0 0.683543 497.251245a13.72344 13.72344 0 0 0-0.630963 2.997073c0 6.519949 0 17.193736 0.578383 26.290116a512.552092 512.552092 0 0 0 511.710809 497.251245 42.589987 42.589987 0 0 0 0-85.127394 427.529859 427.529859 0 0 1-418.275739-341.771502v-0.315481a413.070295 413.070295 0 0 1-6.362208-42.064185 276.677176 276.677176 0 0 1 0-85.127394h-0.368061a420.641849 420.641849 0 0 1 11.094429-63.096278 426.846316 426.846316 0 0 1 840.389833 105.528524 42.589987 42.589987 0 0 0 85.179974 0A512.552092 512.552092 0 0 0 512.394352 0z" fill="#1F78FF" p-id="8829"></path></svg>