<?xml version="1.0" standalone="no"?><!DOCTYPE svg PUBLIC "-//W3C//DTD SVG 1.1//EN" "http://www.w3.org/Graphics/SVG/1.1/DTD/svg11.dtd"><svg t="1709797476754" class="icon" viewBox="0 0 1024 1024" version="1.1" xmlns="http://www.w3.org/2000/svg" p-id="34425" xmlns:xlink="http://www.w3.org/1999/xlink" width="200" height="200"><path d="M594.3296 347.409067c7.509333 0 14.9504 0.682667 22.050133 2.184533a52.565333 52.565333 0 0 1 4.369067-0.2048h0.682667c13.038933 0 26.146133 4.983467 36.181333 14.813867l0.477867 0.477866 149.230933 149.162667a52.906667 52.906667 0 0 1 0.682667 0.750933 52.360533 52.360533 0 0 1 8.260266 3.6864l0.8192 0.477867 98.850134 57.070933a52.224 52.224 0 0 1-25.531734 97.416534h-0.8192a51.882667 51.882667 0 0 1-25.053866-6.5536l-0.750934-0.4096-98.9184-57.1392a52.224 52.224 0 0 1-11.605333-9.0112 51.950933 51.950933 0 0 1-19.114667-11.810134l-0.682666-0.6144-30.378667-30.378666v138.103466l147.0464 120.285867a108.7488 108.7488 0 0 1-68.881067 192.9216H229.512533a108.7488 108.7488 0 0 1-72.704-189.576533l137.352534-123.630934V557.397333l-30.3104 30.3104a52.0192 52.0192 0 0 1-20.821334 12.765867 52.292267 52.292267 0 0 1-11.195733 8.669867l-98.9184 57.1392a51.950933 51.950933 0 0 1-25.258667 6.9632h-0.8192a52.155733 52.155733 0 0 1-26.077866-97.416534L179.541333 518.826667a52.4288 52.4288 0 0 1 10.0352-4.5056l0.4096-0.4096 149.162667-149.162667a52.0192 52.0192 0 0 1 36.0448-15.291733h0.682667c1.6384 0 3.345067 0 4.983466 0.2048 7.099733-1.4336 14.472533-2.184533 21.981867-2.184534h191.419733z m0.273067 104.379733H402.090667l-0.2048 0.068267-2.8672 0.6144-0.546134 0.546133v288.904533L226.645333 896.682667a4.369067 4.369067 0 0 0-1.4336 3.003733V900.573867l0.068267 0.2048a4.3008 4.3008 0 0 0 0.4096 1.092266l0.136533 0.273067 0.068267 0.136533 0.136533 0.2048 0.2048 0.2048 0.2048 0.273067 0.2048 0.136533 0.068267 0.136534 0.2048 0.136533 0.2048 0.136533 0.2048 0.136534 0.2048 0.136533 0.2048 0.068267 0.2048 0.136533h0.2048l0.2048 0.068267 0.2048 0.068266h0.136533l0.682667 0.136534h129.911467a98.986667 98.986667 0 0 1 97.211733-104.448h135.5776a34.816 34.816 0 0 1 0.546133 69.632h-134.485333a29.354667 29.354667 0 0 0-28.8768 34.816h351.982933a4.369067 4.369067 0 0 0 2.935467-7.509334l-0.136533-0.2048-185.344-151.620266V452.881067l-0.4096-0.4096-2.935467-0.6144a4.983467 4.983467 0 0 0-0.750933-0.068267zM498.346667 34.133333a156.603733 156.603733 0 1 1 0 313.275734A156.603733 156.603733 0 0 1 498.346667 34.133333z m0 104.448a52.224 52.224 0 1 0 0 104.379734 52.224 52.224 0 0 0 0-104.448z" fill="#38B37E" p-id="34426"></path></svg>