<?xml version="1.0" standalone="no"?><!DOCTYPE svg PUBLIC "-//W3C//DTD SVG 1.1//EN" "http://www.w3.org/Graphics/SVG/1.1/DTD/svg11.dtd"><svg t="1705655289147" class="icon" viewBox="0 0 1024 1024" version="1.1" xmlns="http://www.w3.org/2000/svg" p-id="7278" xmlns:xlink="http://www.w3.org/1999/xlink" width="200" height="200"><path d="M874.62 916.85l-65.61-590.5c-2.24-20.16-20.69-36.65-40.95-36.65h-516.3c-20.29 0-38.71 16.49-40.95 36.65l-65.61 590.5c-2.24 20.16 12.53 36.65 32.79 36.65H841.8c20.29 0 35.07-16.49 32.82-36.65z" fill="#EC87C0" p-id="7279"></path><path d="M872.38 896.68c-4.83 11.82-16.34 19.93-30.58 19.93H178c-14.21 0-25.71-8.12-30.58-19.93l-2.21 20.16c-2.24 20.16 12.53 36.65 32.79 36.65h663.81c20.28 0 35.06-16.49 32.82-36.65l-2.25-20.16z" fill="#D770AD" p-id="7280"></path><path d="M657.43 215.94c0-81.48-66.07-147.52-147.53-147.52-81.46 0-147.5 66.04-147.5 147.52v165.37h0.03c0 0.19-0.03 0.38-0.03 0.58 0 10.18 8.24 18.43 18.45 18.43 10.16 0 18.42-8.25 18.42-18.43 0-0.2 0-0.39-0.03-0.58h0.03V215.94c0-61.02 49.64-110.63 110.63-110.63 61.02 0 110.63 49.62 110.63 110.63v165.37h0.06c-0.03 0.19-0.06 0.38-0.06 0.58 0 10.18 8.26 18.43 18.45 18.43 10.18 0 18.45-8.25 18.45-18.43 0-0.2-0.03-0.39-0.06-0.58h0.06V215.94z" fill="#434A54" p-id="7281"></path><path d="M579.05 501.74c-27.06 0-51.59 11.14-69.15 29.08-17.56-17.94-42.06-29.08-69.15-29.08-53.45 0-96.81 43.35-96.81 96.81 0 110.63 165.95 207.44 165.95 207.44s165.95-96.8 165.95-207.44c0.01-53.46-43.31-96.81-96.79-96.81z" fill="#F5F7FA" p-id="7282"></path><path d="M579.05 501.74c-6.29 0-12.45 0.64-18.42 1.78 44.62 8.62 78.36 47.87 78.36 95.02 0 87.72-104.29 166.72-147.5 195.7 11.29 7.58 18.42 11.74 18.42 11.74s165.95-96.8 165.95-207.44c-0.01-53.45-43.33-96.8-96.81-96.8z" opacity=".1" p-id="7283"></path></svg>