<?xml version="1.0" standalone="no"?><!DOCTYPE svg PUBLIC "-//W3C//DTD SVG 1.1//EN" "http://www.w3.org/Graphics/SVG/1.1/DTD/svg11.dtd"><svg t="1709797164807" class="icon" viewBox="0 0 1024 1024" version="1.1" xmlns="http://www.w3.org/2000/svg" p-id="4398" xmlns:xlink="http://www.w3.org/1999/xlink" width="200" height="200"><path d="M658.048 576h123.904a92.8 92.8 0 0 1 49.28 8.544 57.888 57.888 0 0 1 24.224 24.192 92.8 92.8 0 0 1 8.544 49.28v123.936a92.8 92.8 0 0 1-8.544 49.28 57.888 57.888 0 0 1-24.192 24.224 92.8 92.8 0 0 1-49.28 8.544h-123.936a92.8 92.8 0 0 1-49.28-8.544 58.112 58.112 0 0 1-24.224-24.192 92.8 92.8 0 0 1-8.544-49.28v-123.936a92.8 92.8 0 0 1 8.544-49.28 57.888 57.888 0 0 1 24.192-24.224 92.8 92.8 0 0 1 49.28-8.544z" fill="#3671FD" opacity=".2" p-id="4399"></path><path d="M781.952 544a124.128 124.128 0 0 1 64.384 12.32 90.144 90.144 0 0 1 37.344 37.344A123.808 123.808 0 0 1 896 658.048v123.904a124.128 124.128 0 0 1-12.32 64.384 90.144 90.144 0 0 1-37.344 37.344 123.808 123.808 0 0 1-64.384 12.32h-123.904a124.128 124.128 0 0 1-64.384-12.32 90.144 90.144 0 0 1-37.344-37.344A124.128 124.128 0 0 1 544 781.952v-123.904a124.128 124.128 0 0 1 12.32-64.384 90.144 90.144 0 0 1 37.344-37.344A124.128 124.128 0 0 1 658.048 544z m-416 0a124.128 124.128 0 0 1 64.384 12.32 90.144 90.144 0 0 1 37.344 37.344A123.808 123.808 0 0 1 480 658.048v123.904a124.128 124.128 0 0 1-12.32 64.384 90.144 90.144 0 0 1-37.344 37.344 123.808 123.808 0 0 1-64.384 12.32H242.048a124.128 124.128 0 0 1-64.384-12.32 90.144 90.144 0 0 1-37.344-37.344A124.128 124.128 0 0 1 128 781.952v-123.904a124.128 124.128 0 0 1 12.32-64.384 90.144 90.144 0 0 1 37.344-37.344A124.128 124.128 0 0 1 242.048 544z m421.44 64h-134.784l-9.6 0.32a41.216 41.216 0 0 0-19.008 4.416 26.176 26.176 0 0 0-11.072 11.072 32.256 32.256 0 0 0-3.488 10.272l-0.736 5.952q0 1.824-0.256 3.648l-0.256 8.896v134.784l0.32 9.76a41.216 41.216 0 0 0 4.416 19.008 26.176 26.176 0 0 0 11.072 11.072 32.256 32.256 0 0 0 10.272 3.488l5.952 0.736 3.648 0.256 8.896 0.256h134.784l8.896-0.256 3.648-0.256 5.952-0.736a32.224 32.224 0 0 0 10.272-3.488 26.176 26.176 0 0 0 11.072-11.072 32.224 32.224 0 0 0 3.488-10.272l0.736-5.952 0.256-3.648 0.256-8.896v-134.784l-0.256-8.896q0-1.824-0.256-3.648l-0.736-5.952a32 32 0 0 0-3.488-10.272 26.176 26.176 0 0 0-11.072-11.072 32 32 0 0 0-10.272-3.488l-5.952-0.736-3.648-0.256z m-416 0H236.608l-9.6 0.32a41.216 41.216 0 0 0-19.008 4.416 26.176 26.176 0 0 0-11.072 11.072 32.256 32.256 0 0 0-3.488 10.272l-0.736 5.952q0 1.824-0.256 3.648l-0.256 8.896v134.784l0.32 9.76a41.216 41.216 0 0 0 4.416 19.008 26.176 26.176 0 0 0 11.072 11.072 32.256 32.256 0 0 0 10.272 3.488l5.952 0.736 3.648 0.256 8.896 0.256h134.784l8.896-0.256 3.648-0.256 5.952-0.736a32.224 32.224 0 0 0 10.272-3.488 26.176 26.176 0 0 0 11.072-11.072 32.224 32.224 0 0 0 3.488-10.272l0.736-5.952 0.256-3.648 0.256-8.896v-134.784l-0.256-8.896q0-1.824-0.256-3.648l-0.736-5.952a32 32 0 0 0-3.488-10.272 26.176 26.176 0 0 0-11.072-11.072 32 32 0 0 0-10.272-3.488l-5.952-0.736-3.648-0.256z m410.56-480a124.128 124.128 0 0 1 64.384 12.32 90.144 90.144 0 0 1 37.344 37.344A124.128 124.128 0 0 1 896 242.048v123.904a124.128 124.128 0 0 1-12.32 64.384 90.144 90.144 0 0 1-37.344 37.344 123.808 123.808 0 0 1-64.384 12.32h-123.904a124.128 124.128 0 0 1-64.384-12.32 90.144 90.144 0 0 1-37.344-37.344A124.128 124.128 0 0 1 544 365.952V242.048a124.128 124.128 0 0 1 12.32-64.384 90.144 90.144 0 0 1 37.344-37.344A124.128 124.128 0 0 1 658.048 128z m5.44 64h-134.784l-9.6 0.32a41.216 41.216 0 0 0-19.008 4.416 26.176 26.176 0 0 0-11.072 11.072 32.256 32.256 0 0 0-3.488 10.272l-0.736 5.952q0 1.824-0.256 3.648l-0.256 8.896v134.784l0.32 9.76a41.216 41.216 0 0 0 4.416 19.008 26.176 26.176 0 0 0 11.072 11.072 32.256 32.256 0 0 0 10.272 3.488l5.952 0.736 3.648 0.256 8.896 0.256h134.784l8.896-0.256 3.648-0.256 5.952-0.736a32.224 32.224 0 0 0 10.272-3.488 26.176 26.176 0 0 0 11.072-11.072 32.224 32.224 0 0 0 3.488-10.272l0.736-5.952 0.256-3.648 0.256-8.896V236.576l-0.256-8.896q0-1.824-0.256-3.648l-0.736-5.952a32 32 0 0 0-3.488-10.272 26.176 26.176 0 0 0-11.072-11.072 32 32 0 0 0-10.272-3.488l-5.952-0.736-3.648-0.256z" fill="#3671FD" p-id="4400"></path><path d="M288 128a32 32 0 0 1 32 32v96h96a32 32 0 0 1 0 64h-96v96a32 32 0 0 1-64 0v-96H160a32 32 0 0 1 0-64h96V160a32 32 0 0 1 32-32z" fill="#FE9C23" p-id="4401"></path></svg>