<?xml version="1.0" standalone="no"?><!DOCTYPE svg PUBLIC "-//W3C//DTD SVG 1.1//EN" "http://www.w3.org/Graphics/SVG/1.1/DTD/svg11.dtd"><svg t="1705648361452" class="icon" viewBox="0 0 1024 1024" version="1.1" xmlns="http://www.w3.org/2000/svg" p-id="5279" xmlns:xlink="http://www.w3.org/1999/xlink" width="200" height="200"><path d="M512 0C229.216 0 0 229.216 0 512s229.216 512 512 512 512-229.216 512-512S794.784 0 512 0z m310.336 822.336a436.896 436.896 0 0 1-139.52 94.016A436.256 436.256 0 0 1 512 950.88c-59.296 0-116.8-11.52-170.816-34.528a436.896 436.896 0 0 1-139.52-94.016 436.896 436.896 0 0 1-94.016-139.52A436.256 436.256 0 0 1 73.12 512c0-59.296 11.52-116.8 34.528-170.816 22.048-52.224 53.696-99.2 94.016-139.52a436.896 436.896 0 0 1 139.52-94.016A436.256 436.256 0 0 1 512 73.12c59.296 0 116.8 11.52 170.816 34.528 52.224 22.048 99.2 53.696 139.52 94.016a436.896 436.896 0 0 1 94.016 139.52A436.256 436.256 0 0 1 950.88 512c0 59.296-11.52 116.8-34.528 170.816a436.896 436.896 0 0 1-94.016 139.52z" fill="#f4ea2a" p-id="5280"></path><path d="M658.24 365.984a73.248 73.248 0 1 0 146.496 0 73.248 73.248 0 0 0-146.496 0zM219.52 365.984a73.248 73.248 0 1 0 146.464 0 73.248 73.248 0 0 0-146.496 0zM765.248 729.312c-141.312-141.312-368.128-144.256-506.496-5.888a37.92 37.92 0 0 0 53.664 53.632c108.416-108.416 287.2-106.112 399.168 5.888a37.92 37.92 0 1 0 53.664-53.568v-0.064z" fill="#f4ea2a" p-id="5281"></path></svg>