<?xml version="1.0" standalone="no"?><!DOCTYPE svg PUBLIC "-//W3C//DTD SVG 1.1//EN" "http://www.w3.org/Graphics/SVG/1.1/DTD/svg11.dtd"><svg height="701" node-id="1" sillyvg="true" template-height="701" template-width="901" version="1.1" viewBox="0 0 901 701" width="901" xmlns="http://www.w3.org/2000/svg" xmlns:xlink="http://www.w3.org/1999/xlink"><defs node-id="100"></defs><g node-id="334"><path d="M 73.29 700.95 C 47.59 700.97 24.64 684.86 15.93 660.68 C -2.76 608.64 -19.22 512.23 53.94 407.94 C 134.82 292.64 296.63 173.43 410.44 161.22 C 588.74 142.10 638.57 349.98 718.57 398.36 C 787.69 440.16 887.79 502.83 900.87 633.82 C 902.49 649.92 897.65 666.01 887.40 678.54 C 877.16 691.07 862.36 699.02 846.26 700.64 C 844.24 700.84 842.22 700.94 840.19 700.94 Z" fill="#f3f5fd" fill-rule="nonzero" group-id="1" node-id="103" stroke="none" target-height="558.8696" target-width="921.7063" target-x="-19.216" target-y="142.099"></path></g><g node-id="335"><path d="M 245.06 0.00 L 626.33 0.00 L 626.33 494.60 L 245.06 494.60 Z" fill="#dee8f5" fill-rule="nonzero" group-id="2" node-id="108" stroke="none" target-height="494.601" target-width="381.27" target-x="245.064" target-y="0"></path><path d="M 280.21 140.30 L 591.19 140.30 L 591.19 259.67 L 280.21 259.67 Z" fill="#ffffff" fill-rule="nonzero" group-id="2" node-id="110" stroke="none" target-height="119.37001" target-width="310.98602" target-x="280.206" target-y="140.303"></path><path d="M 280.21 400.22 L 591.19 400.22 L 591.19 460.71 L 280.21 460.71 Z" fill="#ffffff" fill-rule="nonzero" group-id="2" node-id="112" stroke="none" target-height="60.491028" target-width="310.98602" target-x="280.206" target-y="400.218"></path><g node-id="341"><path d="M 280.21 283.05 L 591.19 283.05 L 591.19 294.82 L 280.21 294.82 Z" fill="#ffffff" fill-rule="nonzero" group-id="2,8" node-id="116" stroke="none" target-height="11.776001" target-width="310.98602" target-x="280.206" target-y="283.046"></path><path d="M 280.21 312.09 L 591.19 312.09 L 591.19 323.86 L 280.21 323.86 Z" fill="#ffffff" fill-rule="nonzero" group-id="2,8" node-id="118" stroke="none" target-height="11.776001" target-width="310.98602" target-x="280.206" target-y="312.088"></path><path d="M 280.21 341.13 L 591.19 341.13 L 591.19 352.90 L 280.21 352.90 Z" fill="#ffffff" fill-rule="nonzero" group-id="2,8" node-id="120" stroke="none" target-height="11.776001" target-width="310.98602" target-x="280.206" target-y="341.129"></path><path d="M 280.21 367.16 L 591.19 367.16 L 591.19 378.94 L 280.21 378.94 Z" fill="#ffffff" fill-rule="nonzero" group-id="2,8" node-id="122" stroke="none" target-height="11.776001" target-width="310.98602" target-x="280.206" target-y="367.163"></path></g><g node-id="342"><path d="M 364.92 78.08 C 364.92 95.21 354.60 110.66 338.77 117.21 C 322.94 123.77 304.73 120.15 292.61 108.03 C 280.50 95.92 276.87 77.70 283.43 61.87 C 289.99 46.05 305.43 35.73 322.56 35.73 C 333.80 35.69 344.60 40.14 352.55 48.10 C 360.50 56.05 364.95 66.84 364.92 78.08 Z" fill="#c1d8ed" fill-rule="nonzero" group-id="2,9" node-id="127" stroke="none" target-height="88.07529" target-width="88.07504" target-x="276.8743" target-y="35.693405"></path><path d="M 339.33 65.68 C 339.33 74.94 331.82 82.45 322.56 82.45 C 313.30 82.45 305.79 74.94 305.79 65.68 C 305.79 56.42 313.30 48.91 322.56 48.91 C 331.82 48.91 339.33 56.42 339.33 65.68 Z" fill="#ffffff" fill-rule="nonzero" group-id="2,9" node-id="129" stroke="none" target-height="33.536" target-width="33.53601" target-x="305.793" target-y="48.91"></path><path d="M 353.08 107.45 C 345.10 115.75 334.08 120.44 322.56 120.44 C 311.04 120.44 300.03 115.75 292.04 107.45 C 297.75 94.69 309.28 85.97 322.56 85.97 C 335.84 85.97 347.37 94.69 353.08 107.45 Z" fill="#ffffff" fill-rule="nonzero" group-id="2,9" node-id="131" stroke="none" target-height="34.471092" target-width="61.043" target-x="292.039" target-y="85.965"></path></g><path d="M 382.17 35.99 L 467.68 35.99 L 467.68 61.83 L 382.17 61.83 Z" fill="#ffffff" fill-rule="nonzero" group-id="2" node-id="134" stroke="none" target-height="25.841003" target-width="85.50998" target-x="382.174" target-y="35.989"></path><path d="M 382.17 77.81 L 591.19 77.81 L 591.19 87.22 L 382.17 87.22 Z" fill="#ffffff" fill-rule="nonzero" group-id="2" node-id="136" stroke="none" target-height="9.402" target-width="209.01697" target-x="382.174" target-y="77.815"></path><path d="M 382.17 103.20 L 591.19 103.20 L 591.19 112.60 L 382.17 112.60 Z" fill="#ffffff" fill-rule="nonzero" group-id="2" node-id="138" stroke="none" target-height="9.402" target-width="209.01697" target-x="382.174" target-y="103.2"></path></g><g node-id="336"><path d="M 290.21 343.77 C 290.21 343.77 298.42 339.78 304.59 341.31 C 310.75 342.84 307.86 345.49 303.38 346.44 C 298.89 347.38 289.04 348.92 289.04 348.92" fill="#eda59f" fill-rule="nonzero" group-id="3" node-id="143" stroke="none" target-height="9.13797" target-width="21.718994" target-x="289.035" target-y="339.778"></path><path d="M 295.01 343.58 C 295.01 343.58 310.23 341.98 310.38 345.64 C 310.38 345.64 311.05 356.94 308.99 358.69 C 305.86 361.32 290.40 359.26 290.40 359.26 Z" fill="#eda59f" fill-rule="nonzero" group-id="3" node-id="145" stroke="none" target-height="19.339996" target-width="20.645996" target-x="290.405" target-y="341.98"></path></g><g node-id="337"><g node-id="343"><path d="M 184.66 690.13 L 163.81 687.65 C 164.74 679.75 165.81 670.27 165.88 668.72 C 165.88 668.82 165.88 668.90 165.88 668.96 L 186.88 668.96 C 186.87 669.59 186.87 671.51 184.66 690.13 Z" fill="#eda59f" fill-rule="nonzero" group-id="4,10" node-id="152" stroke="none" target-height="21.407959" target-width="23.072006" target-x="163.805" target-y="668.718"></path><path d="M 100.98 692.64 L 79.98 692.57 C 79.98 692.57 80.05 670.88 80.05 668.96 L 101.05 668.96 C 101.05 670.89 100.98 692.64 100.98 692.64 Z" fill="#eda59f" fill-rule="nonzero" group-id="4,10" node-id="154" stroke="none" target-height="23.672974" target-width="21.07" target-x="79.983" target-y="668.963"></path><path d="M 155.41 683.50 L 192.41 682.87 C 190.87 643.91 190.61 599.34 190.20 559.01 C 190.08 549.02 189.33 539.04 187.94 529.14 C 181.99 486.42 178.10 443.94 170.09 401.46 L 169.82 401.54 L 169.04 396.21 L 92.96 391.51 L 89.00 441.22 C 89.00 441.22 79.09 613.16 74.57 682.30 L 111.44 685.41 C 118.08 617.63 128.36 518.86 134.69 447.65 C 141.95 482.32 146.88 518.22 153.20 552.59 C 154.46 595.62 155.53 640.60 155.41 683.50 Z" fill="#55affc" fill-rule="nonzero" group-id="4,10" node-id="156" stroke="none" target-height="293.90198" target-width="117.840996" target-x="74.57" target-y="391.513"></path><path d="M 126.51 700.76 C 127.65 700.75 128.74 700.27 129.51 699.43 C 130.29 698.59 130.68 697.47 130.59 696.33 L 130.59 696.33 C 130.46 694.74 129.43 693.36 127.93 692.80 L 103.49 684.62 C 102.53 684.30 101.48 684.41 100.61 684.93 C 97.25 687.27 93.23 688.46 89.15 688.34 C 85.96 688.11 82.91 686.99 80.33 685.11 C 79.86 684.73 79.22 684.65 78.68 684.91 C 78.14 685.17 77.80 685.71 77.80 686.31 L 77.80 698.26 C 77.80 698.98 78.08 699.66 78.59 700.16 C 79.09 700.67 79.77 700.95 80.49 700.94 Z" fill="#c1d8ed" fill-rule="nonzero" group-id="4,10" node-id="158" stroke="none" target-height="16.64746" target-width="52.87983" target-x="77.79652" target-y="684.29846"></path><path d="M 210.25 700.76 C 211.39 700.75 212.47 700.27 213.25 699.43 C 214.02 698.59 214.41 697.47 214.32 696.33 L 214.32 696.33 C 214.20 694.74 213.16 693.36 211.66 692.80 L 187.22 684.62 C 186.26 684.30 185.21 684.41 184.35 684.93 C 180.99 687.27 176.97 688.46 172.88 688.34 C 169.70 688.11 166.64 686.99 164.06 685.11 C 163.60 684.73 162.96 684.65 162.41 684.91 C 161.87 685.17 161.53 685.71 161.53 686.31 L 161.53 698.26 C 161.53 698.98 161.82 699.66 162.32 700.16 C 162.82 700.67 163.51 700.95 164.22 700.94 Z" fill="#c1d8ed" fill-rule="nonzero" group-id="4,10" node-id="160" stroke="none" target-height="16.64746" target-width="52.87993" target-x="161.53001" target-y="684.29846"></path></g><path d="M 254.78 362.25 L 195.30 362.25 C 191.72 362.24 188.39 360.42 186.46 357.41 L 148.88 298.74 L 166.56 287.41 L 201.04 341.25 L 254.78 341.25 Z" fill="#2f3235" fill-rule="nonzero" group-id="4" node-id="163" stroke="none" target-height="74.832" target-width="105.901" target-x="148.877" target-y="287.413"></path><path d="M 174.47 398.03 C 170.28 407.66 87.94 411.66 86.84 394.72 C 86.14 383.94 95.64 374.53 95.64 353.52 C 95.64 332.51 76.31 305.68 92.06 289.93 C 96.64 285.36 104.53 282.41 114.14 282.40 C 114.86 288.01 148.93 288.03 149.19 282.53 C 150.49 282.55 151.50 282.57 152.12 282.60 C 185.31 284.03 170.72 321.79 170.41 349.53 C 170.01 381.99 178.78 388.11 174.47 398.03 Z" fill="#2f3235" fill-rule="nonzero" group-id="4" node-id="165" stroke="none" target-height="129.25998" target-width="108.98999" target-x="76.315" target-y="282.403"></path><path d="M 149.19 282.53 C 148.93 288.03 145.94 296.12 136.71 296.73 C 124.41 297.54 114.86 288.01 114.14 282.40 L 114.17 282.40 C 126.28 282.40 142.12 282.42 149.19 282.53 Z" fill="#eda59f" fill-rule="nonzero" group-id="4" node-id="167" stroke="none" target-height="15.143005" target-width="35.04" target-x="114.145" target-y="282.4"></path><path d="M 117.15 287.96 C 117.15 287.96 124.88 283.86 123.15 262.80 L 139.13 259.84 C 139.13 259.84 137.33 278.72 145.41 284.71 Z" fill="#eda59f" fill-rule="nonzero" group-id="4,11" node-id="171" stroke="none" target-height="28.118011" target-width="28.26899" target-x="117.146" target-y="259.839"></path><path d="M 142.14 280.76 L 128.87 270.61 L 139.29 270.50 C 139.60 274.07 140.56 277.55 142.14 280.76 Z" fill="#000000" fill-opacity="0.15" fill-rule="nonzero" group-id="4,11,16" node-id="175" stroke="none" target-height="10.261993" target-width="13.272995" target-x="128.869" target-y="270.502"></path><path d="M 114.09 254.64 C 115.19 261.02 118.68 267.07 124.31 269.14 C 131.00 271.58 135.96 271.75 143.67 271.75 C 154.20 271.75 153.85 260.77 154.15 249.71 C 154.44 238.61 153.56 226.69 149.40 222.82 C 141.10 215.10 116.72 219.99 113.76 232.91 C 112.23 239.60 113.03 248.56 114.09 254.64 Z" fill="#eda59f" fill-rule="nonzero" group-id="4,11" node-id="178" stroke="none" target-height="56.651" target-width="42.21701" target-x="112.228" target-y="215.1"></path><path d="M 159.79 229.25 C 159.79 229.25 164.10 228.28 162.92 223.99 C 162.13 221.13 158.48 221.77 158.48 221.77 C 158.48 221.77 161.94 221.13 161.94 218.12 C 161.94 216.22 160.48 212.99 156.07 214.83 C 150.90 217.00 144.99 216.72 140.51 215.96 C 137.97 215.41 135.39 215.04 132.80 214.88 L 132.79 214.88 L 132.79 214.88 C 129.81 214.82 126.84 215.22 123.97 216.05 C 115.95 218.45 103.82 225.65 106.40 241.95 C 109.28 260.14 117.81 267.10 121.57 269.33 C 122.02 269.60 122.57 269.65 123.06 269.46 C 123.55 269.28 123.93 268.88 124.09 268.37 C 125.15 264.96 126.99 256.38 126.47 238.69 C 151.13 237.48 158.22 237.12 158.22 237.12 C 158.22 237.12 164.02 237.33 164.02 233.09 C 164.02 228.85 159.79 229.25 159.79 229.25 Z" fill="#0f1011" fill-rule="nonzero" group-id="4,11" node-id="180" stroke="none" target-height="56.6597" target-width="60.27999" target-x="103.816" target-y="212.992"></path><path d="M 140.55 248.27 C 140.55 249.07 139.91 249.72 139.10 249.72 C 138.30 249.72 137.66 249.07 137.66 248.27 C 137.66 247.47 138.30 246.82 139.10 246.82 C 139.91 246.82 140.55 247.47 140.55 248.27 Z" fill="#0f1011" fill-rule="nonzero" group-id="4,11,17" node-id="184" stroke="none" target-height="2.897995" target-width="2.897995" target-x="137.656" target-y="246.817"></path><path d="M 151.99 247.33 C 151.99 248.13 151.34 248.78 150.54 248.78 C 149.74 248.78 149.09 248.13 149.09 247.33 C 149.09 246.53 149.74 245.88 150.54 245.88 C 151.34 245.88 151.99 246.53 151.99 247.33 Z" fill="#0f1011" fill-rule="nonzero" group-id="4,11,17" node-id="186" stroke="none" target-height="2.897995" target-width="2.897995" target-x="149.088" target-y="245.88"></path><path d="M 153.05 244.24 L 153.04 244.24 L 149.20 244.19 C 149.02 244.19 148.85 244.12 148.72 243.99 C 148.60 243.86 148.53 243.68 148.53 243.50 C 148.54 243.13 148.84 242.83 149.22 242.83 L 153.06 242.88 C 153.42 242.90 153.71 243.20 153.71 243.56 C 153.70 243.93 153.41 244.23 153.05 244.24 Z" fill="#0f1011" fill-rule="nonzero" group-id="4,11,17" node-id="188" stroke="none" target-height="1.4100037" target-width="5.183609" target-x="148.5256" target-y="242.831"></path><path d="M 135.98 245.64 C 135.63 245.64 135.34 245.38 135.30 245.04 C 135.26 244.70 135.48 244.38 135.82 244.30 L 139.60 243.39 C 139.84 243.32 140.10 243.40 140.27 243.57 C 140.44 243.75 140.50 244.01 140.43 244.24 C 140.36 244.48 140.16 244.66 139.92 244.71 L 136.14 245.62 C 136.09 245.63 136.03 245.64 135.98 245.64 Z" fill="#0f1011" fill-rule="nonzero" group-id="4,11,17" node-id="190" stroke="none" target-height="2.3188477" target-width="5.2438354" target-x="135.2575" target-y="243.32393"></path><path d="M 131.57 251.81 C 131.82 255.18 129.31 258.12 125.94 258.40 C 122.58 258.67 119.62 256.18 119.32 252.81 C 119.16 251.18 119.67 249.56 120.73 248.31 C 121.79 247.06 123.31 246.29 124.94 246.19 C 129.32 246.05 131.29 248.43 131.57 251.81 Z" fill="#eda59f" fill-rule="nonzero" group-id="4,11" node-id="193" stroke="none" target-height="12.622696" target-width="12.660606" target-x="119.16151" target-y="246.049"></path><path d="M 145.54 256.30 C 145.29 256.30 145.08 256.12 145.04 255.87 C 145.01 255.63 145.15 255.39 145.39 255.32 L 148.34 254.42 L 146.28 249.83 C 146.17 249.58 146.28 249.28 146.53 249.17 C 146.78 249.06 147.07 249.17 147.19 249.42 L 149.48 254.52 C 149.54 254.65 149.54 254.80 149.48 254.94 C 149.42 255.07 149.31 255.16 149.17 255.21 L 145.68 256.28 C 145.64 256.29 145.59 256.30 145.54 256.30 Z" fill="#000000" fill-opacity="0.15" fill-rule="nonzero" group-id="4,11,18" node-id="197" stroke="none" target-height="7.240738" target-width="4.53537" target-x="145.00545" target-y="249.05943"></path><path d="M 139.78 259.68 C 139.78 259.68 145.12 260.24 148.88 258.93 C 148.88 258.93 148.85 262.45 144.61 262.80 C 140.38 263.15 139.78 259.68 139.78 259.68 Z" fill="#ffffff" fill-rule="nonzero" group-id="4,11" node-id="200" stroke="none" target-height="4.21698" target-width="9.100006" target-x="139.776" target-y="258.932"></path></g><path d="M 306.05 351.75 C 306.05 384.88 279.18 411.75 246.04 411.75 C 212.91 411.75 186.04 384.88 186.04 351.75 C 186.04 318.61 212.91 291.75 246.04 291.75 C 279.18 291.75 306.05 318.61 306.05 351.75 Z" fill="#8ddbe0" fill-rule="nonzero" node-id="204" stroke="none" target-height="120" target-width="120.000015" target-x="186.045" target-y="291.745"></path><path d="M 308.98 358.69 C 308.70 358.91 308.39 359.09 308.05 359.22 C 306.26 359.59 301.74 358.50 301.01 357.25 C 299.83 355.21 300.56 347.83 301.60 345.16 C 302.58 342.66 307.45 343.71 308.08 343.82 C 308.11 343.83 308.13 343.84 308.15 343.84 C 309.47 344.20 310.35 344.77 310.38 345.65 C 310.38 345.65 311.05 356.94 308.98 358.69 Z" fill="#eda59f" fill-rule="nonzero" node-id="206" stroke="none" target-height="16.927002" target-width="11.223022" target-x="299.83" target-y="342.659"></path><path d="M 176.50 365.50 C 176.50 365.50 178.91 352.35 188.21 354.64 C 194.09 356.08 211.15 353.51 211.41 361.05 C 211.63 367.59 195.61 369.33 190.31 368.79 C 185.55 368.30 176.50 365.50 176.50 365.50 Z" fill="#eda59f" fill-rule="nonzero" group-id="5" node-id="210" stroke="none" target-height="16.980988" target-width="35.132996" target-x="176.5" target-y="352.351"></path><path d="M 184.81 354.50 C 184.81 354.50 198.65 352.46 201.74 353.77 C 204.48 354.94 197.74 358.57 197.74 358.57 Z" fill="#eda59f" fill-rule="nonzero" group-id="5" node-id="212" stroke="none" target-height="6.11499" target-width="19.673996" target-x="184.806" target-y="352.458"></path><path d="M 189.23 372.81 L 127.36 370.92 C 123.42 370.80 119.86 368.57 118.03 365.09 L 87.48 306.83 L 106.79 296.71 L 134.38 349.32 L 189.90 351.02 Z" fill="#2f3235" fill-rule="nonzero" node-id="215" stroke="none" target-height="76.103" target-width="102.418" target-x="87.481" target-y="296.707"></path><path d="M 237.19 376.35 C 236.16 376.35 235.17 375.95 234.42 375.25 L 214.81 356.74 C 213.21 355.20 213.15 352.67 214.67 351.06 C 216.19 349.45 218.73 349.36 220.35 350.86 L 236.97 366.54 L 271.52 328.47 C 272.48 327.35 273.96 326.84 275.40 327.14 C 276.84 327.44 278.01 328.50 278.44 329.90 C 278.88 331.31 278.52 332.84 277.50 333.90 L 240.18 375.02 C 239.45 375.83 238.43 376.30 237.34 376.35 Z" fill="#ffffff" fill-rule="nonzero" node-id="217" stroke="none" target-height="49.50357" target-width="65.72681" target-x="213.15298" target-y="326.8449"></path><path d="M 685.98 685.56 L 699.94 685.56 L 699.94 700.95 L 685.98 700.95 Z" fill="#c1d8ed" fill-rule="nonzero" group-id="6,12" node-id="223" stroke="none" target-height="15.3880005" target-width="13.958984" target-x="685.979" target-y="685.558"></path><path d="M 818.79 685.56 L 832.75 685.56 L 832.75 700.95 L 818.79 700.95 Z" fill="#c1d8ed" fill-rule="nonzero" group-id="6,12" node-id="225" stroke="none" target-height="15.3880005" target-width="13.958984" target-x="818.787" target-y="685.558"></path><path d="M 786.20 510.11 L 844.76 510.11 L 844.76 687.34 L 786.20 687.34 Z" fill="#c1d8ed" fill-rule="nonzero" group-id="6" node-id="228" stroke="none" target-height="177.23102" target-width="58.567993" target-x="786.196" target-y="510.11"></path><path d="M 625.82 514.03 L 685.80 514.03 L 685.80 685.56 L 625.82 685.56 Z" fill="#c1d8ed" fill-rule="nonzero" group-id="6" node-id="230" stroke="none" target-height="171.52301" target-width="59.97699" target-x="625.823" target-y="514.035"></path><path d="M 790.14 687.34 L 621.88 687.34 L 621.88 510.11 L 790.14 510.11 Z M 629.77 679.45 L 782.25 679.45 L 782.25 518.00 L 629.77 518.00 Z" fill="#dee8f5" fill-rule="nonzero" group-id="6" node-id="232" stroke="none" target-height="177.23102" target-width="168.263" target-x="621.878" target-y="510.11"></path><path d="M 790.14 687.34 L 621.88 687.34 L 621.88 589.63 L 790.14 589.63 Z M 629.77 679.45 L 782.25 679.45 L 782.25 597.52 L 629.77 597.52 Z" fill="#dee8f5" fill-rule="nonzero" group-id="6" node-id="234" stroke="none" target-height="97.71399" target-width="168.263" target-x="621.878" target-y="589.627"></path><path d="M 698.16 532.06 L 698.16 543.34 L 698.16 589.56 L 769.63 589.56 L 769.63 543.34 L 769.63 532.06 L 698.16 532.06 Z" fill="#c1d8ed" fill-rule="nonzero" group-id="6,13" node-id="238" stroke="none" target-height="57.505005" target-width="71.47797" target-x="698.156" target-y="532.058"></path><path d="M 674.73 543.34 L 746.21 543.34 L 746.21 589.56 L 674.73 589.56 Z" fill="#dee8f5" fill-rule="nonzero" group-id="6,13" node-id="240" stroke="none" target-height="46.218994" target-width="71.47797" target-x="674.728" target-y="543.344"></path><path d="M 674.73 543.34 L 746.21 543.34 L 746.21 546.81 L 674.73 546.81 Z" fill="#c1d8ed" fill-rule="nonzero" group-id="6,13" node-id="242" stroke="none" target-height="3.4650269" target-width="71.47797" target-x="674.728" target-y="543.344"></path><path d="M 746.21 543.34 L 674.73 543.34 L 674.73 532.06 L 746.21 532.06 Z" fill="#dee8f5" fill-rule="nonzero" group-id="6,13,19" node-id="246" stroke="none" target-height="11.286011" target-width="71.47797" target-x="674.72906" target-y="532.058"></path><path d="M 702.55 552.63 L 718.39 552.63 C 719.30 552.63 720.04 553.36 720.04 554.27 L 720.04 557.92 C 720.04 558.83 719.30 559.57 718.39 559.57 L 702.55 559.57 C 701.64 559.57 700.90 558.83 700.90 557.92 L 700.90 554.27 C 700.90 553.36 701.64 552.63 702.55 552.63 Z" fill="#ffffff" fill-rule="nonzero" group-id="6,13" node-id="249" stroke="none" target-height="6.9400024" target-width="19.137024" target-x="700.899" target-y="552.627"></path><path d="M 632.63 685.56 L 646.59 685.56 L 646.59 700.95 L 632.63 700.95 Z" fill="#dee8f5" fill-rule="nonzero" group-id="6,14" node-id="254" stroke="none" target-height="15.3880005" target-width="13.959045" target-x="632.626" target-y="685.558"></path><path d="M 765.43 685.56 L 779.39 685.56 L 779.39 700.95 L 765.43 700.95 Z" fill="#dee8f5" fill-rule="nonzero" group-id="6,14" node-id="256" stroke="none" target-height="15.3880005" target-width="13.958984" target-x="765.434" target-y="685.558"></path><path d="M 685.80 661.86 L 763.51 661.86 L 763.51 679.45 L 685.80 679.45 Z" fill="#c1d8ed" fill-rule="nonzero" group-id="6,15" node-id="261" stroke="none" target-height="17.596008" target-width="77.708984" target-x="685.805" target-y="661.855"></path><path d="M 687.14 626.70 L 764.85 626.70 L 764.85 644.30 L 687.14 644.30 Z" fill="#c1d8ed" fill-rule="nonzero" group-id="6,15" node-id="263" stroke="none" target-height="17.596008" target-width="77.708984" target-x="687.141" target-y="626.703"></path><path d="M 654.82 661.86 L 737.00 661.86 L 737.00 679.45 L 654.82 679.45 Z" fill="#dee8f5" fill-rule="nonzero" group-id="6,15,20" node-id="267" stroke="none" target-height="17.596008" target-width="82.177" target-x="654.82" target-y="661.855"></path><path d="M 726.30 661.86 L 730.29 661.86 L 730.29 679.45 L 726.30 679.45 Z" fill="#c1d8ed" fill-opacity="0.62" fill-rule="nonzero" group-id="6,15,20,23" node-id="271" stroke="none" target-height="17.596008" target-width="3.9890137" target-x="726.3" target-y="661.855"></path><path d="M 718.32 661.86 L 722.31 661.86 L 722.31 679.45 L 718.32 679.45 Z" fill="#c1d8ed" fill-opacity="0.62" fill-rule="nonzero" group-id="6,15,20,24" node-id="276" stroke="none" target-height="17.596008" target-width="3.9890137" target-x="718.323" target-y="661.855"></path><path d="M 669.91 670.65 C 669.91 673.79 667.37 676.33 664.24 676.33 C 661.11 676.33 658.57 673.79 658.57 670.65 C 658.57 667.52 661.11 664.98 664.24 664.98 C 667.37 664.98 669.91 667.52 669.91 670.65 Z" fill="#f3f5fd" fill-rule="nonzero" group-id="6,15,20" node-id="279" stroke="none" target-height="11.348022" target-width="11.347961" target-x="658.567" target-y="664.979"></path><path d="M 656.15 626.70 L 738.33 626.70 L 738.33 644.30 L 656.15 644.30 Z" fill="#dee8f5" fill-rule="nonzero" group-id="6,15,21" node-id="284" stroke="none" target-height="17.596008" target-width="82.17694" target-x="656.155" target-y="626.703"></path><path d="M 661.45 630.67 L 718.79 630.67 L 718.79 640.34 L 661.45 640.34 Z" fill="#f3f5fd" fill-rule="nonzero" group-id="6,15,21" node-id="286" stroke="none" target-height="9.669983" target-width="57.34503" target-x="661.446" target-y="630.666"></path><path d="M 724.08 626.70 L 731.62 626.70 L 731.62 644.30 L 724.08 644.30 Z" fill="#c1d8ed" fill-opacity="0.62" fill-rule="nonzero" group-id="6,15,21,25" node-id="290" stroke="none" target-height="17.596008" target-width="7.5480347" target-x="724.076" target-y="626.703"></path><path d="M 769.85 661.88 L 692.14 661.88 L 692.14 644.28 L 769.85 644.28 Z" fill="#c1d8ed" fill-rule="nonzero" group-id="6,15,22,26" node-id="298" stroke="none" target-height="17.596008" target-width="77.708984" target-x="692.143" target-y="644.28"></path><path d="M 743.33 661.88 L 661.16 661.88 L 661.16 644.28 L 743.33 644.28 Z" fill="#f3f5fd" fill-rule="nonzero" group-id="6,15,22,27,28" node-id="305" stroke="none" target-height="17.596008" target-width="82.177" target-x="661.15796" target-y="644.28"></path><path d="M 671.85 661.88 L 667.87 661.88 L 667.87 644.28 L 671.85 644.28 Z" fill="#dee8f5" fill-rule="nonzero" group-id="6,15,22,27,29" node-id="310" stroke="none" target-height="17.596008" target-width="3.9889526" target-x="667.865" target-y="644.28"></path><path d="M 679.83 661.88 L 675.84 661.88 L 675.84 644.28 L 679.83 644.28 Z" fill="#dee8f5" fill-rule="nonzero" group-id="6,15,22,27,30" node-id="315" stroke="none" target-height="17.596008" target-width="3.9889526" target-x="675.8431" target-y="644.28"></path><path d="M 739.59 653.08 C 739.59 656.21 737.05 658.75 733.91 658.75 C 730.78 658.75 728.24 656.21 728.24 653.08 C 728.24 649.94 730.78 647.40 733.91 647.40 C 737.05 647.40 739.59 649.94 739.59 653.08 Z" fill="#dee8f5" fill-rule="nonzero" group-id="6,15,22,27" node-id="318" stroke="none" target-height="11.347961" target-width="11.348022" target-x="728.24" target-y="647.403"></path><path d="M 685.98 648.76 L 722.25 648.76 L 722.25 657.39 L 685.98 657.39 Z" fill="#dee8f5" fill-rule="nonzero" group-id="6,15,22" node-id="321" stroke="none" target-height="8.626038" target-width="36.276" target-x="685.979" target-y="648.764"></path><path d="M 757.42 470.76 C 756.85 471.77 755.91 472.52 754.80 472.84 C 753.68 473.16 752.49 473.02 751.47 472.46 C 750.35 471.84 748.09 472.37 747.16 473.24 C 744.70 475.51 743.54 477.30 743.28 479.24 L 720.26 479.24 C 720.18 477.86 720.00 476.48 719.73 475.11 C 719.15 472.20 717.80 468.13 714.70 465.26 C 714.07 464.58 713.23 464.12 712.30 463.98 C 710.90 464.67 709.23 464.56 707.93 463.69 C 706.63 462.82 705.90 461.32 706.01 459.76 C 706.12 458.20 707.05 456.81 708.46 456.13 C 712.16 454.29 716.83 455.33 720.63 458.84 C 721.81 459.93 722.86 461.14 723.78 462.46 C 723.43 460.23 722.89 458.03 722.15 455.89 C 721.27 453.20 719.66 450.80 717.49 448.97 C 715.57 447.50 715.20 444.76 716.66 442.83 C 718.13 440.91 720.88 440.53 722.80 442.00 C 726.33 444.84 728.97 448.63 730.39 452.93 C 730.55 453.36 730.70 453.80 730.84 454.25 C 733.56 447.47 736.35 441.73 741.97 438.42 C 744.05 437.20 746.74 437.89 747.96 439.98 C 749.19 442.06 748.49 444.74 746.41 445.97 C 742.97 447.99 740.92 452.55 738.60 458.40 C 741.15 455.44 744.21 452.97 747.64 451.10 C 749.76 449.94 752.41 450.72 753.57 452.84 C 754.73 454.96 753.95 457.62 751.83 458.77 C 749.16 460.24 746.79 462.20 744.86 464.55 C 748.33 463.00 752.32 463.10 755.72 464.81 C 757.83 465.99 758.59 468.65 757.42 470.76 Z" fill="#8ddbe0" fill-rule="nonzero" group-id="7" node-id="328" stroke="none" target-height="42.046234" target-width="52.688232" target-x="705.89966" target-y="437.19775"></path><path d="M 711.66 479.24 L 752.33 479.24 L 752.33 491.07 L 711.66 491.07 Z" fill="#dee8f5" fill-rule="nonzero" group-id="7" node-id="330" stroke="none" target-height="11.824982" target-width="40.669006" target-x="711.66" target-y="479.243"></path><path d="M 752.33 491.07 L 752.33 504.03 C 752.32 507.39 749.60 510.11 746.25 510.11 L 717.73 510.11 C 714.38 510.11 711.65 507.39 711.65 504.03 L 711.65 491.07 Z" fill="#c1d8ed" fill-rule="nonzero" group-id="7" node-id="332" stroke="none" target-height="19.041992" target-width="40.671997" target-x="711.653" target-y="491.068"></path></svg>