<?xml version="1.0" standalone="no"?><!DOCTYPE svg PUBLIC "-//W3C//DTD SVG 1.1//EN" "http://www.w3.org/Graphics/SVG/1.1/DTD/svg11.dtd"><svg t="1701048232935" class="icon" viewBox="0 0 1024 1024" version="1.1" xmlns="http://www.w3.org/2000/svg" p-id="5482" xmlns:xlink="http://www.w3.org/1999/xlink" width="200" height="200"><path d="M717.3 893.6l-176.9-258-0.6-0.6c-1.7-2.4-3.8-4.6-6.2-6.5-0.4-0.4-0.8-0.8-1.3-1.1-0.3-0.2-0.5-0.5-0.8-0.7-2.4-1.7-5-2.9-7.6-3.8-0.5-0.2-1-0.3-1.5-0.5-3.1-1-6.3-1.6-9.4-1.7h-0.3c-3.4-0.1-6.7 0.5-9.9 1.4-0.3 0.1-0.6 0-0.9 0.1-0.2 0.1-0.4 0.3-0.7 0.3-3.1 1-6 2.4-8.7 4.3-0.4 0.3-0.8 0.7-1.2 1-2.3 1.7-4.4 3.8-6.2 6.1-0.3 0.4-0.6 0.7-0.9 1.1-0.2 0.2-0.3 0.4-0.5 0.6l-176.9 258c-10.8 15.7-6.8 37.2 9 48 6 4.1 12.8 6 19.5 6 11 0 21.8-5.2 28.5-15l114-166.2v146.7c0 19.1 15.4 34.5 34.5 34.5s34.5-15.4 34.5-34.5V766.4l113.9 166.2c6.7 9.7 17.5 15 28.5 15 6.7 0 13.5-2 19.5-6 15.3-10.8 19.3-32.3 8.6-48z" fill="#99C236" p-id="5483"></path><path d="M566.9 158.3c-1.2-34.2-25-61.6-63.7-60.1-33.4 1.2-59.3 22.1-60 61.2l123.6-0.1c0-0.4 0.1-0.7 0.1-1z" fill="#00A9DC" p-id="5484"></path><path d="M846.8 159l-280 0.2c0.9 37.1-26.3 60-60.1 62.7-37.7 3.1-63.3-30.4-63.7-60.1 0-0.9 0.2-1.6 0.2-2.5l-265.2 0.2c-36 0-65.2 29.2-65.2 65.3l0.3 410.7c0 36 29.2 65.2 65.3 65.2l668.7-0.5c36 0 65.2-29.2 65.2-65.3l-0.3-410.7c0-36-29.2-65.2-65.2-65.2z" fill="#FFBA3B" p-id="5485"></path><path d="M506.7 222c33.8-2.8 60.9-25.6 60.1-62.7l-123.6 0.1c0 0.9-0.2 1.6-0.2 2.5 0.4 29.6 26 63.1 63.7 60.1z" fill="#CAC134" p-id="5486"></path><path d="M289.2 627c-19.1-0.1-34.4-15.6-34.3-34.7l0.9-197c0.1-19.1 15.6-34.4 34.7-34.3 19.1 0.1 34.4 15.6 34.3 34.7l-0.9 197c-0.1 19-15.6 34.4-34.7 34.3zM438.2 627.7c-19.1-0.1-34.4-15.6-34.3-34.7l1.2-244.6c0.1-19.1 15.6-34.4 34.7-34.3 19.1 0.1 34.4 15.6 34.3 34.7l-1.2 244.6c-0.2 19-15.7 34.4-34.7 34.3zM587.1 628.4c-19.1-0.1-34.4-15.6-34.3-34.7l0.7-138.4c0.1-19.1 15.6-34.4 34.7-34.3 19.1 0.1 34.4 15.6 34.3 34.7l-0.7 138.3c-0.1 19.1-15.6 34.5-34.7 34.4zM736 629.1c-19.1-0.1-34.4-15.6-34.3-34.7l1.3-272c0.1-19.1 15.6-34.4 34.7-34.3 19.1 0.1 34.4 15.6 34.3 34.7l-1.3 272c-0.1 19-15.6 34.4-34.7 34.3z" fill="#FB536C" p-id="5487"></path></svg>