<?xml version="1.0" standalone="no"?><!DOCTYPE svg PUBLIC "-//W3C//DTD SVG 1.1//EN" "http://www.w3.org/Graphics/SVG/1.1/DTD/svg11.dtd"><svg t="1705283971506" class="icon" viewBox="0 0 1024 1024" version="1.1" xmlns="http://www.w3.org/2000/svg" p-id="12500" xmlns:xlink="http://www.w3.org/1999/xlink" width="200" height="200"><path d="M361.984 337.408S304.128 219.648 56.32 282.624c0 0.512 157.696 112.128 305.664 54.784z" fill="#75A141" p-id="12501"></path><path d="M363.52 294.912c33.28-121.856-95.232-198.656-95.232-198.656C260.608 239.616 363.52 294.912 363.52 294.912zM729.6 784.896s-30.208 47.104-15.36 91.136c14.848 43.52 105.472 75.776 105.472 75.776s-15.872-32.256 15.36-75.776 0-91.136 0-91.136h-105.472zM436.224 624.128l-66.048 39.936c-4.096 2.56-10.752 1.024-10.752-5.12L358.4 365.568c0-6.144-4.096-9.728-8.192-6.656-10.752 4.096-76.288 28.672-80.384 28.672H180.736c-9.728 0-7.68 6.656-5.12 13.312h82.944c4.096 0 6.656 2.56 6.656 6.656v316.416c0 13.312-36.352 15.872-28.16 29.184l60.416 95.744c6.144 10.752 16.384-1.024 17.408-22.016 0-1.024 1.024-2.56 1.536-3.584L444.928 634.88c5.12-5.632-2.048-13.824-8.704-10.752zM960.512 364.544h-246.272c-4.096 0-6.656-2.56-6.656-6.656V226.304c0-4.096 2.56-6.656 6.656-6.656h199.168c3.584-6.144 2.56-13.312-4.096-13.312h-194.56c-4.096 0-6.656-2.56-6.656-6.656 0-107.008-4.096-62.976 17.408-88.064 4.096-4.096 13.824-15.872 1.024-18.432l-115.2-19.968c-5.12-1.024-7.68 1.024-7.68 6.656v118.784c0 4.096-2.56 6.656-6.656 6.656H457.216c-7.68 0-7.68 6.656-4.096 13.312h143.36c4.096 0 6.656 2.56 6.656 6.656v131.072c0 4.096-2.56 6.656-6.656 6.656H437.248c-9.728 0-8.192 14.848 1.024 14.848h522.24c9.216 1.536 10.24-13.312 0-13.312zM503.808 550.4c-6.144-1.024-10.752 5.12-7.68 9.728 24.064 52.224 44.032 104.448 54.784 157.696 1.024 4.096 3.584 6.144 7.68 5.12 43.008-6.656 84.48-28.672 77.312-79.872-7.168-60.928-79.872-80.896-132.096-92.672z" fill="#75A141" p-id="12502"></path><path d="M956.416 509.44h-114.688c-4.096 0-6.144-2.048-6.656-6.144V465.92l4.608-13.824c3.072-1.536 8.192-4.096 16.384-12.8 6.656-6.656 10.752-14.848 1.024-17.408l-6.656-1.024v-0.512l-28.672-3.584-83.456-12.288c-2.048-0.512-4.096 0-5.632 1.024l-3.072-0.512v97.792c-0.512 3.072-3.072 5.12-6.656 5.12H428.032c-7.68 0-7.68 8.192-5.12 12.288h300.032c3.584 0 6.144 2.048 6.656 5.12V757.76l105.472 0.512v-230.4c0.512-3.584 2.56-6.144 6.656-6.144h119.296c3.584-4.096 2.56-12.288-4.608-12.288z" fill="#75A141" p-id="12503"></path></svg>